<svg id="Layer_1" enable-background="new 0 0 512 512" viewBox="0 0 512 512" xmlns="http://www.w3.org/2000/svg"><g clip-rule="evenodd" fill-rule="evenodd"><path d="m50.22 250.37-2.25-89c-.38-15.49 11.95-28.45 27.4-28.83 15.49-.41 28.45 11.95 28.83 27.41l2.44 96.44z" fill="#fbc894"/><path d="m12.76 286.72-4.75-186.26c-.38-15.46 11.94-28.44 27.4-28.83 15.46-.38 28.42 11.97 28.83 27.43l2.44 96.19c9.75-4.09 21.45-2.5 29.79 5.05 25.13 22.74 50.22 45.47 75.35 68.24 20.13 18.21 30.73 41.3 31.41 68.43l2.86 112.97-119.26 2.94-1.07-42.12c-.49-19.63-8.18-36.36-22.74-49.54l-27.52-24.93c-14.58-13.21-22.25-29.93-22.74-49.57z" fill="#fbbd80"/><path d="m205.06 408.81 1.04 41.13-119.26 2.94-1.07-42.12c-.03-.66-.05-1.29-.08-1.95z" fill="#e2aa73"/><path d="m228.24 479.66-164.57.14c-4.04 0-7.33-3.3-7.36-7.33l-.05-42.15c0-4.04 3.3-7.36 7.33-7.36l164.57-.14c4.04 0 7.36 3.32 7.36 7.36l.05 42.15c0 4.03-3.3 7.33-7.33 7.33z" fill="#0593fc"/><path d="m152.64 327.01c-9.97-9.03-19.96-18.07-29.93-27.1-21.34-19.3-42.65-38.61-63.95-57.91-11.48-10.38-12.38-28.26-2-39.71 10.38-11.48 28.26-12.36 39.73-1.98l58.46 52.94z" fill="#fbbd80"/><path d="m228.24 479.66-164.57.14c-.14 0-.25 0-.38 0l153.06-.14c4.04 0 7.33-3.29 7.33-7.33l-.06-42.15c0-3.93-3.1-7.14-6.97-7.33l11.51-.03c4.04 0 7.36 3.32 7.36 7.36l.05 42.15c0 4.03-3.3 7.33-7.33 7.33z" fill="#0584e3"/><path d="m461.78 250.37 2.25-89c.38-15.49-11.95-28.45-27.43-28.83-15.46-.41-28.42 11.95-28.81 27.41l-2.44 96.44z" fill="#fbc894"/><path d="m499.24 286.72 4.75-186.26c.38-15.46-11.95-28.45-27.4-28.83-15.46-.38-28.42 11.97-28.83 27.43l-2.44 96.19c-9.75-4.09-21.47-2.5-29.79 5.05-25.13 22.74-50.25 45.47-75.35 68.24-20.13 18.21-30.73 41.3-31.41 68.43l-2.88 112.97 119.29 2.94 1.07-42.12c.49-19.63 8.18-36.36 22.74-49.54l27.54-24.93c14.55-13.21 22.22-29.93 22.71-49.57z" fill="#fbbd80"/><path d="m306.91 408.81-1.04 41.13 119.29 2.94 1.07-42.12c.03-.66.05-1.29.08-1.95z" fill="#e2aa73"/><path d="m283.76 479.66 164.57.14c4.04 0 7.33-3.3 7.33-7.33l.06-42.15c.03-4.04-3.3-7.36-7.33-7.36l-164.54-.14c-4.04 0-7.36 3.32-7.36 7.36l-.06 42.15c0 4.03 3.3 7.33 7.33 7.33z" fill="#0593fc"/><path d="m359.36 327.01c9.97-9.03 19.96-18.07 29.93-27.1 21.31-19.3 42.65-38.61 63.95-57.91 11.48-10.38 12.36-28.26 2-39.71-10.38-11.48-28.26-12.36-39.73-1.98l-58.49 52.94z" fill="#fbbd80"/><path d="m283.76 479.66 164.57.14h.36l-153.03-.14c-4.04 0-7.33-3.29-7.33-7.33l.05-42.15c0-3.93 3.1-7.14 6.97-7.33l-11.51-.03c-4.04 0-7.36 3.32-7.36 7.36l-.06 42.15c.01 4.03 3.31 7.33 7.34 7.33z" fill="#0584e3"/><path d="m276.13 51.75-20.13 20.13-20.16-20.13c-26.06-26.06-68.7-26.06-94.79 0-26.06 26.06-26.06 68.73 0 94.79l97.18 97.15c9.78 9.78 25.76 9.78 35.53 0l97.15-97.15c26.09-26.06 26.09-68.73 0-94.79-26.05-26.06-68.7-26.06-94.78 0z" fill="#ff4646"/><path d="m246.94 95.63h18.1c2.64 0 4.75 2.14 4.75 4.75v27.43h27.46c2.61 0 4.75 2.14 4.75 4.75v18.1c0 2.61-2.14 4.75-4.75 4.75h-27.46v27.43c0 2.64-2.11 4.75-4.75 4.75h-18.1c-2.61 0-4.75-2.11-4.75-4.75v-27.43h-27.43c-2.61 0-4.75-2.14-4.75-4.75v-18.1c0-2.61 2.14-4.75 4.75-4.75h27.43v-27.43c0-2.61 2.14-4.75 4.75-4.75z" fill="#f1f1f1"/><path d="m276.13 51.75-12.77 12.8 7.33 7.33 20.16-20.13c11.18-11.18 25.4-17.55 40.04-19.14-19.53-2.14-39.85 4.26-54.76 19.14zm-80.32-19.14c-19.52-2.14-39.84 4.26-54.76 19.14-26.06 26.06-26.06 68.73 0 94.79l97.18 97.15c6.78 6.78 16.5 8.87 25.13 6.26-3.82-1.18-7.41-3.24-10.43-6.26l-97.15-97.15c-26.06-26.06-26.06-68.73 0-94.79 11.17-11.18 25.39-17.55 40.03-19.14z" fill="#e63f3f"/></g><path d="m228.17 414.81-14.93.02-1.98-78.08c-.74-29.44-12.18-54.39-34.01-74.16-12.57-11.37-25.14-22.73-37.7-34.1-8.73-7.9-17.47-15.8-26.2-23.7l-1.13-45.05c-.25-9.61-4.24-18.57-11.25-25.23-7.01-6.67-16.17-10.2-25.75-9.96-.77.02-1.54.07-2.31.14l-.65-25.81c-.23-9.61-4.21-18.57-11.22-25.24-7.01-6.68-16.18-10.21-25.8-9.97-9.63.23-18.59 4.23-25.26 11.24s-10.21 16.17-9.96 25.77l4.71 186.26c.54 21.94 9.07 40.54 25.36 55.28l27.56 24.95c12.89 11.66 19.65 26.41 20.11 43.83l.1 3.97-14.31.01c-4.1 0-7.95 1.61-10.85 4.53s-4.48 6.79-4.45 10.84l.03 42.15c0 8.46 6.88 15.34 15.34 15.34l164.64-.17h.05c8.43-.06 15.28-6.95 15.28-15.37l-.06-42.14c-.02-8.47-6.9-15.35-15.36-15.35zm-152.57-274.28c5.31-.13 10.43 1.84 14.34 5.56 3.92 3.73 6.15 8.72 6.29 14.06l.77 30.55c-6.72-4.26-14.68-6.17-22.57-5.48l-1.13-44.5c.76-.1 1.52-.17 2.3-.19zm18.13 270.05c-.57-21.97-9.1-40.56-25.36-55.27l-27.56-24.95c-12.91-11.68-19.68-26.43-20.11-43.82l-4.7-186.27c-.14-5.33 1.84-10.43 5.56-14.34 3.73-3.92 8.72-6.15 14.06-6.29 5.34-.15 10.45 1.84 14.37 5.57 3.91 3.72 6.14 8.71 6.26 14.05l2.31 91.21c-2.86 1.77-5.45 3.93-7.72 6.45-6.46 7.11-9.76 16.35-9.28 26 .48 9.67 4.68 18.56 11.82 25.01l63.95 57.91c1.53 1.39 3.45 2.07 5.36 2.07 2.18 0 4.35-.89 5.93-2.63 2.96-3.27 2.71-8.33-.56-11.29l-63.96-57.92c-3.97-3.59-6.31-8.54-6.58-13.94-.27-5.38 1.56-10.52 5.17-14.49 1.94-2.16 4.29-3.82 6.97-4.97.03-.01.07-.02.1-.04 7.22-3.02 15.6-1.62 21.34 3.6 12.57 11.37 25.14 22.73 37.7 34.1s25.13 22.73 37.7 34.1c18.45 16.71 28.13 37.81 28.75 62.71l1.97 77.7-103.4.11zm-29.48 61.26-.03-40.88 141.32-.15h.1.04l21.84-.02.05 40.88zm437.78-396.93c-6.66-7.01-15.63-11.01-25.25-11.25-19.92-.52-36.51 15.28-37.03 35.2l-.65 25.82c-.75-.07-1.51-.12-2.27-.14-.31-.01-.63-.01-.94-.01-19.48 0-35.58 15.61-36.09 35.21l-1.13 45.02c-8.74 7.91-17.48 15.81-26.22 23.72-12.56 11.37-25.13 22.73-37.69 34.1-21.84 19.78-33.29 44.73-34.03 74.15l-1.96 78.08-14.94-.02c-8.47 0-15.36 6.88-15.36 15.33l-.03 42.16c0 8.41 6.85 15.3 15.28 15.36h.05l164.62.17c8.41 0 15.3-6.85 15.36-15.33l.03-42.16c0-8.47-6.88-15.36-15.33-15.36l-14.29-.01.1-3.98c.43-17.39 7.19-32.14 20.11-43.82l27.55-24.94c16.26-14.71 24.79-33.3 25.36-55.28l4.68-186.26c.27-9.6-3.27-18.75-9.93-25.76zm-65.58 65.62c.76.02 1.51.09 2.26.2l-1.11 44.51c-7.88-.69-15.84 1.22-22.56 5.46l.77-30.54c.28-11.11 9.52-19.95 20.64-19.63zm11.33 331.31-163.33-.17.03-40.88 21.87.02h.04.2c.04 0 .07 0 .11-.01l141.11.15zm43.54-185.31c-.45 17.42-7.22 32.17-20.11 43.83l-27.55 24.94c-16.29 14.74-24.82 33.34-25.36 55.27l-.11 4.37-103.41-.11 1.95-77.7c.62-24.88 10.31-45.97 28.78-62.7 12.56-11.37 25.12-22.73 37.68-34.1 12.57-11.37 25.13-22.73 37.69-34.1 5.75-5.2 14.14-6.62 21.38-3.6.03.01.06.02.08.03 2.7 1.17 5.05 2.84 6.99 4.99 3.59 3.96 5.41 9.11 5.14 14.5s-2.6 10.33-6.57 13.92l-1.1 1c-20.95 18.97-41.9 37.94-62.87 56.91-3.27 2.96-3.53 8.02-.57 11.29 1.58 1.75 3.75 2.63 5.93 2.63 1.91 0 3.83-.68 5.36-2.06 20.98-18.97 41.93-37.94 62.88-56.92l1.1-.99c7.13-6.45 11.33-15.32 11.81-24.98s-2.81-18.91-9.25-26.02c-2.28-2.53-4.87-4.69-7.74-6.46l1.38-55.11c.02-.27.03-.55.02-.82l.88-35.28c.29-11.11 9.52-19.91 20.63-19.62 5.35.14 10.35 2.37 14.07 6.29 3.72 3.91 5.69 9.01 5.56 14.35zm-114.74-134.34c14.12-14.11 21.9-32.95 21.9-53.04s-7.78-38.94-21.9-53.06c-29.23-29.23-76.83-29.24-106.09 0 0 0 0 0-.01.01l-14.47 14.49-14.5-14.5c-29.23-29.23-76.83-29.24-106.1 0-29.23 29.26-29.23 76.86 0 106.09l97.17 97.17c6.46 6.46 14.94 9.69 23.43 9.69 8.48 0 16.97-3.23 23.43-9.69zm-132.69 85.87-97.17-97.17c-23-23-23-60.46 0-83.48 11.52-11.5 26.64-17.26 41.76-17.26s30.23 5.75 41.73 17.25l20.15 20.15c1.5 1.5 3.53 2.34 5.65 2.34s4.15-.84 5.65-2.35l20.12-20.15c23.03-23 60.48-23 83.49 0 11.1 11.1 17.22 25.93 17.22 41.75s-6.11 30.64-17.22 41.73l-97.14 97.17c-6.68 6.7-17.55 6.7-24.24.02zm53.37-118.22h-19.45v-19.45c0-7.03-5.72-12.76-12.76-12.76h-18.08c-7.03 0-12.76 5.72-12.76 12.76v19.45h-19.45c-7.03 0-12.76 5.72-12.76 12.76v18.08c0 7.03 5.72 12.76 12.76 12.76h19.45v19.45c0 7.02 5.72 12.73 12.76 12.73h18.08c7.03 0 12.76-5.71 12.76-12.73v-19.45h19.45c7.02 0 12.73-5.72 12.73-12.76v-18.08c0-7.04-5.71-12.76-12.73-12.76zm-3.26 27.61h-24.18c-4.41 0-7.99 3.58-7.99 7.99v24.18h-11.63v-24.18c0-4.41-3.58-7.99-7.99-7.99h-24.21v-11.62h24.21c4.42 0 7.99-3.58 7.99-7.99v-24.21h11.62v24.21c0 4.42 3.58 7.99 7.99 7.99h24.19z"/></svg>