<svg id="Layer_1" enable-background="new 0 0 512 512" viewBox="0 0 512 512" xmlns="http://www.w3.org/2000/svg"><g><g><path clip-rule="evenodd" d="m238.271 207.797c-65.347 16.815-66.809 76.257-13.441 97.009 11.95 4.64 36.02 4.105 59.414 2.39l56.04 56.04 53.453-53.453-56.04-56.012c1.715-23.395 2.278-47.464-2.39-59.442-20.75-53.369-80.221-51.879-97.036 13.468z" fill="#cdedf7" fill-rule="evenodd"/></g><g><path clip-rule="evenodd" d="m194.941 164.439c-16.815 65.347-76.257 66.838-97.037 13.469-4.64-11.95-4.077-36.02-2.362-59.414l-56.04-56.04 53.425-53.454 56.04 56.04c23.395-1.715 47.464-2.278 59.414 2.39 53.397 20.752 51.907 80.194-13.44 97.009z" fill="#cdedf7" fill-rule="evenodd"/></g><g><path clip-rule="evenodd" d="m212.234 218.511c-38.41 23.76-32.421 68.778 12.597 86.296 11.95 4.64 36.02 4.105 59.414 2.39l56.04 56.04 19.992-19.992-56.04-56.04c-23.395 1.715-47.464 2.249-59.414-2.39-34.276-13.329-45.918-42.601-32.589-66.304z" fill="#bae7f5" fill-rule="evenodd"/></g><g><path clip-rule="evenodd" d="m97.904 177.908c17.518 44.99 62.535 51.007 86.296 12.597-23.704 13.328-52.975 1.659-66.303-32.589-4.64-11.95-4.077-36.02-2.362-59.414l-56.04-56.04-19.993 19.991 56.04 56.04c-1.715 23.395-2.278 47.464 2.362 59.415z" fill="#bae7f5" fill-rule="evenodd"/></g><g><path clip-rule="evenodd" d="m405.773 441.771c15.971-7.733 22.72-27.162 14.959-43.134-7.733-15.999-27.134-22.72-43.134-14.987l-92.397 44.821c7.114-13.609 3.684-30.874-8.885-40.575-28.625-22.073-57.249-44.174-85.902-66.275-5.005-3.852-10.432-5.708-16.759-5.708h-67.906-67.822v122.118h67.822c167.108 87.196 132.832 84.806 300.024 3.74z" fill="#ffcebf" fill-rule="evenodd"/></g><g><path clip-rule="evenodd" d="m403.748 335.961c38.747 0 70.324-31.605 70.324-70.352 0-38.719-31.577-70.324-70.324-70.324s-70.324 31.605-70.324 70.324c0 38.747 31.577 70.352 70.324 70.352z" fill="#5fd4f3" fill-rule="evenodd"/></g><g><path clip-rule="evenodd" d="m345.796 265.609c0-36.751 28.203-66.922 64.138-70.043-2.025-.197-4.105-.281-6.186-.281-38.832 0-70.324 31.493-70.324 70.324 0 23.423 11.416 44.146 29.018 56.94 11.585 8.436 25.869 13.413 41.306 13.413 2.081 0 4.162-.084 6.186-.281-16.196-1.406-30.818-8.295-41.981-18.811-13.637-12.823-22.157-31.044-22.157-51.261z" fill="#17c5fa" fill-rule="evenodd"/></g></g><path d="m232.498 201.776c9.235-31.34 29.654-51.503 53.965-52.951 23.663-1.409 45.062 14.905 55.822 42.577 1.398 3.596-.383 7.645-3.98 9.044-3.591 1.398-7.644-.382-9.044-3.98-8.484-21.818-24.55-34.722-41.967-33.691-19.045 1.134-35.272 18.923-42.348 46.423-.634 2.466-2.559 4.39-5.025 5.025-27.509 7.078-45.303 23.316-46.439 42.377-1.036 17.406 11.868 33.487 33.679 41.967 8.815 3.422 27.897 4.068 56.721 1.92 2.035-.142 4.023.59 5.461 2.029l56.379 56.407c2.728 2.729 2.727 7.153-.003 9.881-1.363 1.363-3.152 2.046-4.939 2.046-1.789 0-3.578-.683-4.942-2.049l-54.121-54.148c-29.932 2.077-48.918 1.093-59.618-3.06-27.668-10.759-43.978-32.149-42.567-55.825 1.449-24.324 21.618-44.754 52.966-53.992zm-145.133-81.476c-2.042 29.994-1.053 48.984 3.085 59.617 10.326 26.571 30.448 42.674 52.984 42.674.939 0 1.882-.028 2.828-.085 24.315-1.446 44.738-21.614 53.976-52.961 31.343-9.236 51.511-29.658 52.965-53.972 1.415-23.672-14.893-45.069-42.573-55.847-10.72-4.152-29.717-5.132-59.64-3.058l-54.092-54.121c-2.728-2.729-7.153-2.73-9.881-.003-2.73 2.728-2.731 7.152-.003 9.881l56.351 56.379c1.438 1.44 3.427 2.174 5.461 2.029 28.821-2.15 47.915-1.502 56.747 1.919 21.816 8.494 34.722 24.582 33.681 41.986-1.139 19.051-18.933 35.281-46.438 42.359-2.466.634-4.39 2.559-5.025 5.025-7.078 27.509-23.31 45.301-42.358 46.434-17.408 1.067-33.476-11.879-41.959-33.704-3.407-8.756-4.063-27.842-1.947-56.728.149-2.026-.592-4.015-2.027-5.452l-56.379-56.379c-2.729-2.729-7.153-2.729-9.882 0s-2.729 7.153 0 9.882zm208.052-13.672c1.364 1.363 3.152 2.046 4.939 2.046 1.788 0 3.578-.683 4.942-2.049l50.354-50.381c2.728-2.729 2.727-7.153-.003-9.881s-7.153-2.727-9.881.003l-50.354 50.381c-2.728 2.729-2.727 7.153.003 9.881zm13.407 28.033c.905 3.032 3.684 4.99 6.692 4.99.662 0 1.335-.095 2.002-.293l67.637-20.198c3.698-1.104 5.801-4.997 4.696-8.694-1.105-3.699-4.997-5.798-8.694-4.696l-67.637 20.198c-3.699 1.104-5.801 4.996-4.696 8.693zm-37.199-45.713c.667.199 1.34.293 2.002.293 3.008 0 5.787-1.959 6.692-4.99l20.198-67.637c1.104-3.697-.998-7.59-4.696-8.694s-7.59.999-8.694 4.696l-20.198 67.637c-1.105 3.698.997 7.591 4.696 8.695zm103.673 289.165-79.287 38.449c.695-12.643-4.721-25.248-15.291-33.423l-14.538-11.213c-23.972-18.488-47.926-36.965-71.889-55.467-6.288-4.84-13.197-7.192-21.122-7.192h-136.575c-3.859 0-6.988 3.128-6.988 6.988s3.128 6.988 6.988 6.988h136.576c4.791 0 8.793 1.363 12.589 4.285 23.957 18.497 47.913 36.975 71.886 55.465l14.53 11.206c9.14 7.069 12.307 19.271 8.03 29.802-.095.232-.202.458-.304.687-.16.364-.328.726-.507 1.086-.746 1.489-1.617 2.901-2.619 4.201-8.584 11.123-24.62 13.183-35.747 4.592l-61.301-47.27c-3.055-2.355-7.443-1.79-9.8 1.267-2.356 3.056-1.789 7.444 1.267 9.8l61.298 47.267c7.166 5.533 15.648 8.21 24.07 8.21 11.818 0 23.514-5.273 31.279-15.333.897-1.165 1.711-2.393 2.475-3.654l91.073-44.165c12.645-6.124 27.927-.813 34.061 11.833 6.118 12.638.806 27.919-11.836 34.062-17.302 8.387-32.496 15.954-45.902 22.63-52.035 25.916-78.172 38.918-103.562 38.229-25.518-.699-52.844-15.199-107.284-44.088-11.475-6.089-24.481-12.991-38.808-20.468-.998-.521-2.107-.793-3.233-.793h-68.231c-3.859 0-6.988 3.128-6.988 6.988s3.128 6.988 6.988 6.988h66.517c13.687 7.15 26.156 13.767 37.204 19.63 58.041 30.8 86.832 45.802 115.789 45.801 27.45-.002 55.05-13.486 107.839-39.777 13.374-6.661 28.532-14.211 45.772-22.567 19.57-9.509 27.785-33.16 18.311-52.729-9.496-19.578-33.151-27.793-52.73-18.315zm107.094-112.467c0 42.88-34.885 77.765-77.765 77.765-42.864 0-77.737-34.885-77.737-77.765 0-42.864 34.873-77.737 77.737-77.737 42.879 0 77.765 34.873 77.765 77.737zm-13.976 0c0-35.158-28.616-63.761-63.79-63.761-35.158 0-63.762 28.603-63.762 63.761 0 35.174 28.603 63.79 63.762 63.79 35.174 0 63.79-28.616 63.79-63.79zm-31.796-6.988h-25.006v-25.007c0-3.859-3.128-6.988-6.988-6.988s-6.988 3.128-6.988 6.988v25.007h-25.006c-3.859 0-6.988 3.128-6.988 6.988s3.128 6.988 6.988 6.988h25.006v25.034c0 3.859 3.128 6.988 6.988 6.988s6.988-3.128 6.988-6.988v-25.034h25.006c3.859 0 6.988-3.128 6.988-6.988s-3.128-6.988-6.988-6.988z"/></svg>